<svg width="58" height="58" viewBox="0 0 58 58" fill="none" xmlns="http://www.w3.org/2000/svg">
<g clip-path="url(#clip0_80149_26)">
<path d="M1.24226e-07 53.1666H58V57.9999H1.24226e-07V53.1666ZM58 19.1134V24.1666H50.75V43.4999H55.5833V48.3333H2.41667V43.4999H7.25V24.1666H1.24226e-07V19.1134C-0.000240953 17.8109 0.350405 16.5324 1.01508 15.4123C1.67975 14.2921 2.63391 13.3718 3.77725 12.7479L25.5273 0.884442C26.592 0.301686 27.7862 -0.00376129 29 -0.00376129C30.2138 -0.00376129 31.408 0.301686 32.4728 0.884442L54.2228 12.7479C55.3661 13.3718 56.3202 14.2921 56.9849 15.4123C57.6496 16.5324 58.0002 17.8109 58 19.1134ZM12.0833 43.4999H19.3333V24.1666H12.0833V43.4999ZM24.1667 24.1666V43.4999H33.8333V24.1666H24.1667ZM45.9167 24.1666H38.6667V43.4999H45.9167V24.1666ZM53.1667 19.1134C53.1667 18.6792 53.0499 18.253 52.8283 17.8797C52.6068 17.5063 52.2887 17.1995 51.9076 16.9915L30.1576 5.12811C29.8025 4.93436 29.4045 4.83283 29 4.83283C28.5955 4.83283 28.1975 4.93436 27.8424 5.12811L6.09242 16.9915C5.7113 17.1995 5.39325 17.5063 5.17169 17.8797C4.95013 18.253 4.83325 18.6792 4.83333 19.1134V19.3333H53.1667V19.1134Z" fill="#F0B731"/>
</g>
<defs>
<clipPath id="clip0_80149_26">
<rect width="58" height="58" fill="white"/>
</clipPath>
</defs>
</svg>
