<svg width="58" height="58" viewBox="0 0 58 58" fill="none" xmlns="http://www.w3.org/2000/svg">
<path d="M26.5833 33.8333C26.5833 34.4743 26.3287 35.089 25.8755 35.5422C25.4223 35.9954 24.8076 36.25 24.1667 36.25H21.75C21.1091 36.25 20.4944 35.9954 20.0412 35.5422C19.5879 35.089 19.3333 34.4743 19.3333 33.8333C19.3333 33.1924 19.5879 32.5777 20.0412 32.1245C20.4944 31.6713 21.1091 31.4167 21.75 31.4167H24.1667C24.8076 31.4167 25.4223 31.6713 25.8755 32.1245C26.3287 32.5777 26.5833 33.1924 26.5833 33.8333ZM36.25 31.4167H33.8333C33.1924 31.4167 32.5777 31.6713 32.1245 32.1245C31.6713 32.5777 31.4167 33.1924 31.4167 33.8333C31.4167 34.4743 31.6713 35.089 32.1245 35.5422C32.5777 35.9954 33.1924 36.25 33.8333 36.25H36.25C36.8909 36.25 37.5056 35.9954 37.9588 35.5422C38.4121 35.089 38.6667 34.4743 38.6667 33.8333C38.6667 33.1924 38.4121 32.5777 37.9588 32.1245C37.5056 31.6713 36.8909 31.4167 36.25 31.4167ZM24.1667 41.0833H21.75C21.1091 41.0833 20.4944 41.3379 20.0412 41.7912C19.5879 42.2444 19.3333 42.8591 19.3333 43.5C19.3333 44.1409 19.5879 44.7556 20.0412 45.2088C20.4944 45.6621 21.1091 45.9167 21.75 45.9167H24.1667C24.8076 45.9167 25.4223 45.6621 25.8755 45.2088C26.3287 44.7556 26.5833 44.1409 26.5833 43.5C26.5833 42.8591 26.3287 42.2444 25.8755 41.7912C25.4223 41.3379 24.8076 41.0833 24.1667 41.0833ZM36.25 41.0833H33.8333C33.1924 41.0833 32.5777 41.3379 32.1245 41.7912C31.6713 42.2444 31.4167 42.8591 31.4167 43.5C31.4167 44.1409 31.6713 44.7556 32.1245 45.2088C32.5777 45.6621 33.1924 45.9167 33.8333 45.9167H36.25C36.8909 45.9167 37.5056 45.6621 37.9588 45.2088C38.4121 44.7556 38.6667 44.1409 38.6667 43.5C38.6667 42.8591 38.4121 42.2444 37.9588 41.7912C37.5056 41.3379 36.8909 41.0833 36.25 41.0833ZM24.1667 12.0833H21.75C21.1091 12.0833 20.4944 12.3379 20.0412 12.7912C19.5879 13.2444 19.3333 13.8591 19.3333 14.5C19.3333 15.1409 19.5879 15.7556 20.0412 16.2088C20.4944 16.6621 21.1091 16.9167 21.75 16.9167H24.1667C24.8076 16.9167 25.4223 16.6621 25.8755 16.2088C26.3287 15.7556 26.5833 15.1409 26.5833 14.5C26.5833 13.8591 26.3287 13.2444 25.8755 12.7912C25.4223 12.3379 24.8076 12.0833 24.1667 12.0833ZM36.25 12.0833H33.8333C33.1924 12.0833 32.5777 12.3379 32.1245 12.7912C31.6713 13.2444 31.4167 13.8591 31.4167 14.5C31.4167 15.1409 31.6713 15.7556 32.1245 16.2088C32.5777 16.6621 33.1924 16.9167 33.8333 16.9167H36.25C36.8909 16.9167 37.5056 16.6621 37.9588 16.2088C38.4121 15.7556 38.6667 15.1409 38.6667 14.5C38.6667 13.8591 38.4121 13.2444 37.9588 12.7912C37.5056 12.3379 36.8909 12.0833 36.25 12.0833ZM24.1667 21.75H21.75C21.1091 21.75 20.4944 22.0046 20.0412 22.4578C19.5879 22.911 19.3333 23.5257 19.3333 24.1667C19.3333 24.8076 19.5879 25.4223 20.0412 25.8755C20.4944 26.3287 21.1091 26.5833 21.75 26.5833H24.1667C24.8076 26.5833 25.4223 26.3287 25.8755 25.8755C26.3287 25.4223 26.5833 24.8076 26.5833 24.1667C26.5833 23.5257 26.3287 22.911 25.8755 22.4578C25.4223 22.0046 24.8076 21.75 24.1667 21.75ZM36.25 21.75H33.8333C33.1924 21.75 32.5777 22.0046 32.1245 22.4578C31.6713 22.911 31.4167 23.5257 31.4167 24.1667C31.4167 24.8076 31.6713 25.4223 32.1245 25.8755C32.5777 26.3287 33.1924 26.5833 33.8333 26.5833H36.25C36.8909 26.5833 37.5056 26.3287 37.9588 25.8755C38.4121 25.4223 38.6667 24.8076 38.6667 24.1667C38.6667 23.5257 38.4121 22.911 37.9588 22.4578C37.5056 22.0046 36.8909 21.75 36.25 21.75ZM58 24.1667V45.9167C58 52.5794 52.5794 58 45.9167 58H12.0833C5.42058 58 0 52.5794 0 45.9167V33.8333C0.00361812 31.0491 0.967076 28.3513 2.72796 26.1947C4.48884 24.038 6.93944 22.5545 9.66667 21.9941V12.0833C9.66667 5.42058 15.0873 0 21.75 0H36.25C42.9128 0 48.3333 5.42058 48.3333 12.0833V12.3274C53.8409 13.4512 58 18.3304 58 24.1667ZM53.1667 24.1667C53.1667 20.1695 49.9138 16.9167 45.9167 16.9167C45.2757 16.9167 44.661 16.6621 44.2078 16.2088C43.7546 15.7556 43.5 15.1409 43.5 14.5V12.0833C43.5 8.08617 40.2472 4.83333 36.25 4.83333H21.75C17.7528 4.83333 14.5 8.08617 14.5 12.0833V24.1667C14.5 24.8076 14.2454 25.4223 13.7922 25.8755C13.339 26.3287 12.7243 26.5833 12.0833 26.5833C8.08617 26.5833 4.83333 29.8362 4.83333 33.8333V45.9167C4.83333 49.9138 8.08617 53.1667 12.0833 53.1667H45.9167C49.9138 53.1667 53.1667 49.9138 53.1667 45.9167V24.1667ZM45.9167 31.4167H43.5C42.8591 31.4167 42.2444 31.6713 41.7912 32.1245C41.3379 32.5777 41.0833 33.1924 41.0833 33.8333C41.0833 34.4743 41.3379 35.089 41.7912 35.5422C42.2444 35.9954 42.8591 36.25 43.5 36.25H45.9167C46.5576 36.25 47.1723 35.9954 47.6255 35.5422C48.0787 35.089 48.3333 34.4743 48.3333 33.8333C48.3333 33.1924 48.0787 32.5777 47.6255 32.1245C47.1723 31.6713 46.5576 31.4167 45.9167 31.4167ZM45.9167 41.0833H43.5C42.8591 41.0833 42.2444 41.3379 41.7912 41.7912C41.3379 42.2444 41.0833 42.8591 41.0833 43.5C41.0833 44.1409 41.3379 44.7556 41.7912 45.2088C42.2444 45.6621 42.8591 45.9167 43.5 45.9167H45.9167C46.5576 45.9167 47.1723 45.6621 47.6255 45.2088C48.0787 44.7556 48.3333 44.1409 48.3333 43.5C48.3333 42.8591 48.0787 42.2444 47.6255 41.7912C47.1723 41.3379 46.5576 41.0833 45.9167 41.0833ZM14.5 31.4167H12.0833C11.4424 31.4167 10.8277 31.6713 10.3745 32.1245C9.92128 32.5777 9.66667 33.1924 9.66667 33.8333C9.66667 34.4743 9.92128 35.089 10.3745 35.5422C10.8277 35.9954 11.4424 36.25 12.0833 36.25H14.5C15.1409 36.25 15.7556 35.9954 16.2088 35.5422C16.6621 35.089 16.9167 34.4743 16.9167 33.8333C16.9167 33.1924 16.6621 32.5777 16.2088 32.1245C15.7556 31.6713 15.1409 31.4167 14.5 31.4167ZM14.5 41.0833H12.0833C11.4424 41.0833 10.8277 41.3379 10.3745 41.7912C9.92128 42.2444 9.66667 42.8591 9.66667 43.5C9.66667 44.1409 9.92128 44.7556 10.3745 45.2088C10.8277 45.6621 11.4424 45.9167 12.0833 45.9167H14.5C15.1409 45.9167 15.7556 45.6621 16.2088 45.2088C16.6621 44.7556 16.9167 44.1409 16.9167 43.5C16.9167 42.8591 16.6621 42.2444 16.2088 41.7912C15.7556 41.3379 15.1409 41.0833 14.5 41.0833ZM45.9167 21.75H43.5C42.8591 21.75 42.2444 22.0046 41.7912 22.4578C41.3379 22.911 41.0833 23.5257 41.0833 24.1667C41.0833 24.8076 41.3379 25.4223 41.7912 25.8755C42.2444 26.3287 42.8591 26.5833 43.5 26.5833H45.9167C46.5576 26.5833 47.1723 26.3287 47.6255 25.8755C48.0787 25.4223 48.3333 24.8076 48.3333 24.1667C48.3333 23.5257 48.0787 22.911 47.6255 22.4578C47.1723 22.0046 46.5576 21.75 45.9167 21.75Z" fill="#F0B731"/>
</svg>
