<svg width="58" height="58" viewBox="0 0 58 58" fill="none" xmlns="http://www.w3.org/2000/svg">
<path d="M57.7361 15.5879C57.592 15.871 57.3936 16.123 57.1521 16.3293C56.9106 16.5357 56.6307 16.6924 56.3286 16.7905C56.0265 16.8886 55.7081 16.9262 55.3914 16.9011C55.0748 16.876 54.7662 16.7887 54.4833 16.6442L33.2342 5.78856C31.9088 5.14695 30.455 4.81507 28.9826 4.81801C27.5102 4.82094 26.0578 5.1586 24.735 5.80548L3.51725 16.6345C2.94619 16.9262 2.28267 16.979 1.67266 16.7814C1.06266 16.5838 0.556126 16.1518 0.264507 15.5806C-0.0271131 15.0094 -0.0799353 14.3457 0.11766 13.7356C0.315255 13.1254 0.747083 12.6188 1.31814 12.3271L22.5697 1.4932C24.5658 0.513655 26.7592 0.00294502 28.9826 1.26992e-05C31.206 -0.00291962 33.4008 0.502003 35.3995 1.47628L56.6825 12.3367C57.2531 12.6282 57.6846 13.1344 57.8822 13.7441C58.0798 14.3538 58.0272 15.017 57.7361 15.5879ZM53.3548 31.7009C54.8132 34.2593 55.5811 37.1532 55.5829 40.0982V43.4968C55.5824 45.1936 55.1356 46.8604 54.2872 48.3297C53.4388 49.799 52.2188 51.0192 50.7497 51.8676V53.1656C50.7497 54.4478 50.2405 55.6774 49.3341 56.584C48.4277 57.4907 47.1983 58 45.9165 58C44.6347 58 43.4053 57.4907 42.4989 56.584C41.5925 55.6774 41.0833 54.4478 41.0833 53.1656H16.9173C16.9173 54.4478 16.4081 55.6774 15.5017 56.584C14.5953 57.4907 13.3659 58 12.0841 58C10.8023 58 9.57291 57.4907 8.66651 56.584C7.76011 55.6774 7.2509 54.4478 7.2509 53.1656V51.8676C5.78181 51.0192 4.5618 49.799 3.71341 48.3297C2.86503 46.8604 2.41816 45.1936 2.4177 43.4968V40.0982C2.4195 37.1532 3.18735 34.2593 4.6458 31.7009L9.61917 22.999C10.6782 21.151 12.2056 19.6149 14.0473 18.5454C15.889 17.476 17.9801 16.9111 20.1096 16.9077H37.891C40.0205 16.9111 42.1116 17.476 43.9533 18.5454C45.795 19.6149 47.3224 21.151 48.3814 22.999L53.3548 31.7009ZM8.9981 33.828H49.0025L44.1862 25.3969C43.5505 24.2881 42.6339 23.3665 41.5287 22.7249C40.4235 22.0832 39.1688 21.7443 37.891 21.7421H20.1096C18.8338 21.7464 17.5816 22.0864 16.4788 22.7279C15.3759 23.3694 14.4612 24.2899 13.8265 25.3969L8.9981 33.828ZM50.7497 40.0982C50.7486 39.6184 50.7195 39.1389 50.6627 38.6624H45.9165V41.0796C45.9165 41.7207 45.6619 42.3355 45.2087 42.7888C44.7555 43.2422 44.1408 43.4968 43.4999 43.4968C42.859 43.4968 42.2443 43.2422 41.7911 42.7888C41.3379 42.3355 41.0833 41.7207 41.0833 41.0796V38.6624H16.9173V41.0796C16.9173 41.7207 16.6627 42.3355 16.2095 42.7888C15.7563 43.2422 15.1416 43.4968 14.5007 43.4968C13.8598 43.4968 13.2451 43.2422 12.7919 42.7888C12.3387 42.3355 12.0841 41.7207 12.0841 41.0796V38.6624H7.3379C7.28108 39.1389 7.25204 39.6184 7.2509 40.0982V43.4968C7.2509 44.779 7.76011 46.0086 8.66651 46.9153C9.57291 47.8219 10.8023 48.3312 12.0841 48.3312H45.9165C47.1983 48.3312 48.4277 47.8219 49.3341 46.9153C50.2405 46.0086 50.7497 44.779 50.7497 43.4968V40.0982Z" fill="#F0B731"/>
</svg>
