<svg width="58" height="58" viewBox="0 0 58 58" fill="none" xmlns="http://www.w3.org/2000/svg">
<g clip-path="url(#clip0_80149_21)">
<path d="M29 24.1667H7.25C3.25283 24.1667 0 27.4195 0 31.4167V41.0833H4.83333V45.9167H0V50.75H4.83333V58H9.66667V50.75H26.5833V58H31.4167V50.75H36.25V45.9167H31.4167V41.0833H36.25V31.4167C36.25 27.4195 32.9972 24.1667 29 24.1667ZM26.5833 45.9167H9.66667V41.0833H26.5833V45.9167ZM31.4167 36.25H4.83333V31.4167C4.83333 30.0827 5.91842 29 7.25 29H29C30.3316 29 31.4167 30.0827 31.4167 31.4167V36.25ZM56.6829 24.1667C57.5408 25.6312 58 27.2962 58 29C58 34.3312 53.6645 38.6667 48.3333 38.6667C47.4174 38.6667 46.6127 38.5652 45.9167 38.4153V58H41.0833V32.5332H43.5C44.2202 32.5332 44.7712 32.8111 45.2593 33.0576C45.9094 33.3863 46.7988 33.8333 48.3333 33.8333C50.9989 33.8333 53.1667 31.6656 53.1667 29C53.1667 27.8279 52.7196 26.6873 51.9076 25.7834L50.4503 24.1667L51.9076 22.5499C52.7196 21.6461 53.1667 20.5054 53.1667 19.3333C53.1667 17.1728 51.6949 15.2637 49.5876 14.6933L46.9631 13.9828L47.9781 11.4598C48.2149 10.8726 48.3333 10.2684 48.3333 9.66667C48.3333 7.00108 46.1656 4.83333 43.5 4.83333C40.8344 4.83333 38.6667 7.00108 38.6667 9.66667C38.6667 10.2684 38.7875 10.8726 39.0219 11.4598L40.0369 13.9828L37.4124 14.6933C36.3896 14.9673 35.4852 15.5699 34.8385 16.4083C34.1918 17.2467 33.8386 18.2745 33.8333 19.3333C33.8333 19.7079 33.8962 20.0777 33.9832 20.4402C32.4212 19.7167 30.7214 19.3391 29 19.3333C29 15.8123 30.9382 12.6271 33.9203 10.9427C33.7402 9.57798 33.8533 8.19056 34.2521 6.87306C34.6509 5.55556 35.3261 4.33831 36.2329 3.30259C37.1396 2.26688 38.2568 1.43653 39.51 0.867016C40.7632 0.297498 42.1235 0.00191273 43.5 0C44.8765 0.00191273 46.2368 0.297498 47.49 0.867016C48.7432 1.43653 49.8604 2.26688 50.7671 3.30259C51.6739 4.33831 52.3491 5.55556 52.7479 6.87306C53.1467 8.19056 53.2598 9.57798 53.0797 10.9427C54.5687 11.781 55.8087 12.9994 56.6731 14.4735C57.5375 15.9475 57.9953 17.6245 58 19.3333C58 21.0371 57.5408 22.7022 56.6829 24.1667Z" fill="#F0B731"/>
</g>
<defs>
<clipPath id="clip0_80149_21">
<rect width="58" height="58" fill="white"/>
</clipPath>
</defs>
</svg>
