<svg width="157" height="157" viewBox="0 0 157 157" fill="none" xmlns="http://www.w3.org/2000/svg">
<path d="M124.292 157H32.7083C24.0367 156.99 15.7233 153.54 9.59152 147.408C3.45977 141.277 0.0103872 132.963 0 124.292L0 32.7083C0.0103872 24.0367 3.45977 15.7233 9.59152 9.59152C15.7233 3.45977 24.0367 0.0103872 32.7083 0L124.292 0C132.963 0.0103872 141.277 3.45977 147.408 9.59152C153.54 15.7233 156.99 24.0367 157 32.7083V124.292C156.99 132.963 153.54 141.277 147.408 147.408C141.277 153.54 132.963 156.99 124.292 157ZM32.7083 13.0833C27.5035 13.0833 22.5118 15.151 18.8314 18.8314C15.151 22.5118 13.0833 27.5035 13.0833 32.7083V124.292C13.0833 129.497 15.151 134.488 18.8314 138.169C22.5118 141.849 27.5035 143.917 32.7083 143.917H124.292C129.497 143.917 134.488 141.849 138.169 138.169C141.849 134.488 143.917 129.497 143.917 124.292V32.7083C143.917 27.5035 141.849 22.5118 138.169 18.8314C134.488 15.151 129.497 13.0833 124.292 13.0833H32.7083ZM61.1122 111.241C58.3852 111.232 55.7089 110.503 53.3538 109.128C51.0273 107.796 49.0962 105.871 47.7583 103.548C46.4204 101.225 45.7236 98.588 45.7393 95.9074V61.0926C45.7371 58.4115 46.44 55.7769 47.7776 53.4532C49.1151 51.1296 51.0403 49.1985 53.3598 47.8538C55.6794 46.5092 58.3118 45.7982 60.9929 45.7921C63.674 45.7861 66.3096 46.4853 68.6352 47.8196L103.162 65.0569C105.56 66.3515 107.569 68.2641 108.979 70.5963C110.39 72.9284 111.151 75.5954 111.183 78.3206C111.216 81.0459 110.519 83.7303 109.165 86.0957C107.811 88.461 105.849 90.4212 103.483 91.773L68.3146 109.35C66.1213 110.602 63.6373 111.254 61.1122 111.241ZM60.9487 58.9077C60.5882 58.9076 60.234 59.0023 59.9217 59.1825C59.5824 59.3712 59.3009 59.6486 59.1073 59.9851C58.9137 60.3216 58.8153 60.7045 58.8227 61.0926V95.9074C58.8249 96.2898 58.9265 96.665 59.1176 96.9962C59.3087 97.3275 59.5827 97.6033 59.9126 97.7966C60.2425 97.9899 60.617 98.0941 60.9994 98.099C61.3818 98.1038 61.7588 98.009 62.0935 97.8241L97.2615 80.2401C97.5234 80.0352 97.7317 79.7699 97.8684 79.4668C98.0051 79.1637 98.0663 78.8319 98.0465 78.5C98.0547 78.1109 97.9559 77.727 97.761 77.3902C97.5661 77.0534 97.2824 76.7766 96.941 76.5898L62.4402 59.3525C61.9904 59.0766 61.4762 58.9232 60.9487 58.9077Z" fill="#F0B731"/>
</svg>
