<svg width="44" height="44" viewBox="0 0 44 44" fill="none" xmlns="http://www.w3.org/2000/svg">
<g clip-path="url(#clip0_80145_78)">
<path d="M38.4998 44.0001H27.5001V27.5001H32.8348L34.2375 21.9998H27.5001V15.3999C27.5001 13.5774 28.9773 12.0999 30.8001 12.0999H34.1001V6.6H30.8001C25.9431 6.60763 22.0075 10.5429 21.9998 15.3999V21.9998H16.5V27.5001H21.9998V44.0001H5.49986C2.46252 44.0001 0 41.5376 0 38.4998V5.49986C0 2.46252 2.46252 0 5.49986 0H38.4998C41.5376 0 44.0001 2.46252 44.0001 5.49986V38.4998C44.0001 41.5376 41.5376 44.0001 38.4998 44.0001ZM29.7 41.7998H38.4998C40.3227 41.7998 41.7998 40.3227 41.7998 38.4998V5.49986C41.7998 3.67743 40.3227 2.19986 38.4998 2.19986H5.49986C3.67743 2.19986 2.19986 3.67743 2.19986 5.49986V38.4998C2.19986 40.3227 3.67743 41.7998 5.49986 41.7998H19.8V29.7H14.3001V19.8H19.8V15.3999C19.8076 9.32796 24.7278 4.40735 30.8001 4.40013H36.3V14.3001H30.8001C30.1927 14.3001 29.7 14.7923 29.7 15.3999V19.8H37.0698L34.54 29.7H29.7V41.7998Z" fill="#F0B731"/>
</g>
<defs>
<clipPath id="clip0_80145_78">
<rect width="44" height="44" fill="white"/>
</clipPath>
</defs>
</svg>
