<svg width="61" height="61" viewBox="0 0 61 61" fill="none" xmlns="http://www.w3.org/2000/svg">
<rect width="61" height="61" rx="10" fill="#342B28"/>
<g clip-path="url(#clip0_80141_87)">
<path d="M32.7858 11.4231C32.1584 10.8584 31.3441 10.5459 30.5 10.5459C29.6559 10.5459 28.8416 10.8584 28.2142 11.4231L10 27.8163V45.5829C10 47.0328 10.576 48.4232 11.6011 49.4484C12.6263 50.4736 14.0168 51.0496 15.4667 51.0496H45.5333C46.9832 51.0496 48.3737 50.4736 49.3989 49.4484C50.4241 48.4232 51 47.0328 51 45.5829V27.8163L32.7858 11.4231ZM35.625 47.6278H25.375V39.0417C25.375 37.6825 25.915 36.3789 26.8761 35.4178C27.8372 34.4567 29.1408 33.9167 30.5 33.9167C31.8592 33.9167 33.1628 34.4567 34.1239 35.4178C35.085 36.3789 35.625 37.6825 35.625 39.0417V47.6278ZM47.5833 45.5778C47.5833 46.1215 47.3674 46.6429 46.9829 47.0274C46.5985 47.4118 46.077 47.6278 45.5333 47.6278H39.0417V39.0417C39.0417 36.7763 38.1417 34.6037 36.5399 33.0018C34.938 31.4 32.7654 30.5 30.5 30.5C28.2346 30.5 26.062 31.4 24.4601 33.0018C22.8583 34.6037 21.9583 36.7763 21.9583 39.0417V47.6278H15.4667C14.923 47.6278 14.4015 47.4118 14.0171 47.0274C13.6326 46.6429 13.4167 46.1215 13.4167 45.5778V29.3367L30.5 13.9617L47.5833 29.3367V45.5778Z" fill="#F0B731"/>
</g>
<defs>
<clipPath id="clip0_80141_87">
<rect width="41" height="41" fill="white" transform="translate(10 10)"/>
</clipPath>
</defs>
</svg>
