<svg width="54" height="54" viewBox="0 0 54 54" fill="none" xmlns="http://www.w3.org/2000/svg">
<path d="M14.544 49.5H39.456C44.991 49.5 49.5 44.991 49.5 39.456V14.544C49.5 9.009 44.991 4.5 39.456 4.5H14.544C9.009 4.5 4.5 9.009 4.5 14.544V39.456C4.5 44.991 9.009 49.5 14.544 49.5ZM6.3 14.544C6.3 9.999 9.999 6.3 14.544 6.3H39.456C44.001 6.3 47.7 9.999 47.7 14.544V39.456C47.7 44.001 44.001 47.7 39.456 47.7H14.544C9.999 47.7 6.3 44.001 6.3 39.456V14.544Z" fill="#F0B731"/>
<path d="M26.9999 41.5799C35.0369 41.5799 41.5799 35.0369 41.5799 26.9999C41.5799 18.9629 35.0369 12.4199 26.9999 12.4199C18.9629 12.4199 12.4199 18.9629 12.4199 26.9999C12.4199 35.0369 18.9629 41.5799 26.9999 41.5799ZM26.9999 14.2199C34.0469 14.2199 39.7799 19.9529 39.7799 26.9999C39.7799 34.0469 34.0469 39.7799 26.9999 39.7799C19.9529 39.7799 14.2199 34.0469 14.2199 26.9999C14.2199 19.9529 19.9529 14.2199 26.9999 14.2199Z" fill="#F0B731"/>
<path d="M27 35.2619C31.554 35.2619 35.262 31.5539 35.262 26.9999C35.262 22.4459 31.554 18.7379 27 18.7379C22.446 18.7379 18.738 22.4459 18.738 26.9999C18.738 31.5539 22.446 35.2619 27 35.2619ZM27 20.5379C30.564 20.5379 33.462 23.4359 33.462 26.9999C33.462 30.5639 30.564 33.4619 27 33.4619C23.436 33.4619 20.538 30.5639 20.538 26.9999C20.538 23.4359 23.436 20.5379 27 20.5379ZM41.886 15.0749C43.587 15.0749 44.973 13.6889 44.973 11.9879C44.973 10.2869 43.587 8.90088 41.886 8.90088C40.185 8.90088 38.808 10.2869 38.808 11.9879C38.8069 12.3928 38.8856 12.7941 39.0397 13.1685C39.1939 13.543 39.4204 13.8834 39.7064 14.1702C39.9923 14.4569 40.332 14.6845 40.7061 14.8397C41.0801 14.995 41.4811 15.0749 41.886 15.0749ZM41.886 10.7099C42.2274 10.7099 42.5547 10.8455 42.7961 11.0868C43.0374 11.3282 43.173 11.6555 43.173 11.9969C43.173 12.3382 43.0374 12.6656 42.7961 12.9069C42.5547 13.1483 42.2274 13.2839 41.886 13.2839C41.175 13.2839 40.608 12.7079 40.608 11.9969C40.608 11.2859 41.175 10.7099 41.886 10.7099Z" fill="#F0B731"/>
</svg>
