<svg width="51" height="51" viewBox="0 0 51 51" fill="none" xmlns="http://www.w3.org/2000/svg">
<path d="M25.5 14.875C19.6414 14.875 14.875 19.6414 14.875 25.5C14.875 31.3586 19.6414 36.125 25.5 36.125C31.3586 36.125 36.125 31.3586 36.125 25.5C36.125 19.6414 31.3586 14.875 25.5 14.875ZM25.5 34C20.8123 34 17 30.1877 17 25.5C17 20.8123 20.8123 17 25.5 17C30.1877 17 34 20.8123 34 25.5C34 30.1877 30.1877 34 25.5 34ZM49.9375 24.4375H46.7224C46.1847 13.5639 37.4361 4.81525 26.5625 4.27763V1.0625C26.5625 0.780707 26.4506 0.510456 26.2513 0.311199C26.052 0.111942 25.7818 0 25.5 0C25.2182 0 24.948 0.111942 24.7487 0.311199C24.5494 0.510456 24.4375 0.780707 24.4375 1.0625V4.27763C13.5639 4.81525 4.81525 13.5639 4.27763 24.4375H1.0625C0.780707 24.4375 0.510456 24.5494 0.311199 24.7487C0.111942 24.948 0 25.2182 0 25.5C0 25.7818 0.111942 26.052 0.311199 26.2513C0.510456 26.4506 0.780707 26.5625 1.0625 26.5625H4.27763C4.81525 37.4361 13.5639 46.1847 24.4375 46.7224V49.9375C24.4375 50.2193 24.5494 50.4895 24.7487 50.6888C24.948 50.8881 25.2182 51 25.5 51C25.7818 51 26.052 50.8881 26.2513 50.6888C26.4506 50.4895 26.5625 50.2193 26.5625 49.9375V46.7224C37.4361 46.1847 46.1847 37.434 46.7224 26.5625H49.9375C50.2193 26.5625 50.4895 26.4506 50.6888 26.2513C50.8881 26.052 51 25.7818 51 25.5C51 25.2182 50.8881 24.948 50.6888 24.7487C50.4895 24.5494 50.2193 24.4375 49.9375 24.4375ZM25.5 44.625C14.9558 44.625 6.375 36.0464 6.375 25.5C6.375 14.9536 14.9558 6.375 25.5 6.375C36.0443 6.375 44.625 14.9536 44.625 25.5C44.625 36.0464 36.0443 44.625 25.5 44.625Z" fill="white"/>
</svg>
