<svg width="243" height="45" viewBox="0 0 243 45" fill="none" xmlns="http://www.w3.org/2000/svg">
<g clip-path="url(#clip0_80147_72)">
<path d="M22.7858 1.42309C22.1584 0.858372 21.3441 0.545898 20.5 0.545898C19.6559 0.545898 18.8416 0.858372 18.2142 1.42309L0 17.8163V35.5829C0 37.0328 0.575951 38.4232 1.60115 39.4484C2.62635 40.4736 4.01682 41.0496 5.46667 41.0496H35.5333C36.9832 41.0496 38.3737 40.4736 39.3989 39.4484C40.4241 38.4232 41 37.0328 41 35.5829V17.8163L22.7858 1.42309ZM25.625 37.6278H15.375V29.0417C15.375 27.6825 15.915 26.3789 16.8761 25.4178C17.8372 24.4567 19.1408 23.9167 20.5 23.9167C21.8592 23.9167 23.1628 24.4567 24.1239 25.4178C25.085 26.3789 25.625 27.6825 25.625 29.0417V37.6278ZM37.5833 35.5778C37.5833 36.1215 37.3674 36.6429 36.9829 37.0274C36.5985 37.4118 36.077 37.6278 35.5333 37.6278H29.0417V29.0417C29.0417 26.7763 28.1417 24.6037 26.5399 23.0018C24.938 21.4 22.7654 20.5 20.5 20.5C18.2346 20.5 16.062 21.4 14.4601 23.0018C12.8583 24.6037 11.9583 26.7763 11.9583 29.0417V37.6278H5.46667C4.92297 37.6278 4.40155 37.4118 4.0171 37.0274C3.63265 36.6429 3.41667 36.1215 3.41667 35.5778V19.3367L20.5 3.96167L37.5833 19.3367V35.5778Z" fill="white"/>
</g>
<path d="M71.703 17.2C70.9697 17.2 70.2297 17.1067 69.483 16.92C68.7364 16.7333 68.0697 16.4667 67.483 16.12C66.9097 15.76 66.503 15.34 66.263 14.86C66.2497 14.6067 66.2364 14.3533 66.223 14.1C66.223 13.8467 66.3297 13.6533 66.543 13.52C66.7697 13.3733 66.9964 13.3333 67.223 13.4C67.463 13.4533 67.6697 13.5933 67.843 13.82C68.1897 14.2467 68.703 14.6133 69.383 14.92C70.0764 15.2267 70.8364 15.38 71.663 15.38C72.3697 15.38 72.9897 15.2533 73.523 15C74.0697 14.7467 74.4964 14.3933 74.803 13.94C75.123 13.4733 75.283 12.9467 75.283 12.36C75.283 11.5467 75.003 10.8933 74.443 10.4C73.883 9.90667 73.1564 9.66 72.263 9.66H70.943C70.6897 9.66 70.483 9.57333 70.323 9.4C70.163 9.22667 70.083 9.01333 70.083 8.76C70.083 8.48 70.163 8.25333 70.323 8.08C70.483 7.90667 70.6897 7.82 70.943 7.82H71.963C72.6697 7.82 73.263 7.59333 73.743 7.14C74.223 6.68667 74.463 6.08667 74.463 5.34C74.463 4.54 74.183 3.95333 73.623 3.58C73.063 3.19333 72.343 3 71.463 3C70.8097 3 70.1964 3.12 69.623 3.36C69.063 3.6 68.5697 3.97333 68.143 4.48C67.9164 4.77333 67.683 4.96667 67.443 5.06C67.203 5.15333 66.9564 5.11333 66.703 4.94C66.5164 4.80667 66.3897 4.62 66.323 4.38C66.2564 4.12667 66.2964 3.89333 66.443 3.68C66.9497 2.96 67.6164 2.36667 68.443 1.9C69.283 1.42 70.2897 1.18 71.463 1.18C72.4497 1.18 73.3164 1.36 74.063 1.72C74.8097 2.06667 75.3964 2.54 75.823 3.14C76.2497 3.72667 76.463 4.39333 76.463 5.14C76.463 5.74 76.3297 6.28 76.063 6.76C75.8097 7.22667 75.483 7.62667 75.083 7.96C74.6964 8.28 74.2897 8.52667 73.863 8.7C73.4364 8.86 73.063 8.94 72.743 8.94V8.3C73.103 8.3 73.5364 8.37333 74.043 8.52C74.5497 8.65333 75.0497 8.88 75.543 9.2C76.0497 9.52 76.463 9.95333 76.783 10.5C77.1164 11.0333 77.283 11.6933 77.283 12.48C77.283 13.36 77.0364 14.16 76.543 14.88C76.063 15.5867 75.403 16.1533 74.563 16.58C73.723 16.9933 72.7697 17.2 71.703 17.2ZM85.1448 17.08C84.0648 17.08 83.1114 16.8467 82.2848 16.38C81.4581 15.9 80.8048 15.2467 80.3248 14.42C79.8581 13.58 79.6248 12.62 79.6248 11.54C79.6248 10.4467 79.8581 9.48667 80.3248 8.66C80.8048 7.82 81.4581 7.16667 82.2848 6.7C83.1114 6.22 84.0648 5.98 85.1448 5.98C86.2114 5.98 87.1581 6.22 87.9848 6.7C88.8114 7.16667 89.4581 7.82 89.9248 8.66C90.4048 9.48667 90.6448 10.4467 90.6448 11.54C90.6448 12.62 90.4114 13.58 89.9448 14.42C89.4781 15.2467 88.8314 15.9 88.0048 16.38C87.1781 16.8467 86.2248 17.08 85.1448 17.08ZM85.1448 15.28C85.8381 15.28 86.4514 15.12 86.9848 14.8C87.5181 14.48 87.9314 14.04 88.2248 13.48C88.5314 12.92 88.6848 12.2733 88.6848 11.54C88.6848 10.8067 88.5314 10.16 88.2248 9.6C87.9314 9.02667 87.5181 8.58 86.9848 8.26C86.4514 7.94 85.8381 7.78 85.1448 7.78C84.4514 7.78 83.8381 7.94 83.3048 8.26C82.7714 8.58 82.3514 9.02667 82.0448 9.6C81.7381 10.16 81.5848 10.8067 81.5848 11.54C81.5848 12.2733 81.7381 12.92 82.0448 13.48C82.3514 14.04 82.7714 14.48 83.3048 14.8C83.8381 15.12 84.4514 15.28 85.1448 15.28ZM97.7809 6.08C97.9809 6.08 98.1609 6.13333 98.3209 6.24C98.4809 6.34667 98.6075 6.51333 98.7009 6.74L102.821 15.68C102.941 15.9467 102.954 16.1867 102.861 16.4C102.768 16.6 102.608 16.7533 102.381 16.86C102.088 16.9933 101.834 17.0267 101.621 16.96C101.408 16.8933 101.228 16.7267 101.081 16.46L97.3209 7.92H98.3409L94.4609 16.46C94.3409 16.7133 94.1609 16.88 93.9209 16.96C93.6942 17.0267 93.4409 16.9933 93.1609 16.86C92.9075 16.74 92.7275 16.58 92.6209 16.38C92.5275 16.18 92.5475 15.9467 92.6809 15.68L96.8209 6.74C97.0209 6.3 97.3409 6.08 97.7809 6.08ZM110.379 17.08C109.299 17.08 108.346 16.8467 107.519 16.38C106.692 15.9 106.039 15.2467 105.559 14.42C105.092 13.58 104.859 12.62 104.859 11.54C104.859 10.4467 105.092 9.48667 105.559 8.66C106.039 7.82 106.692 7.16667 107.519 6.7C108.346 6.22 109.299 5.98 110.379 5.98C111.446 5.98 112.392 6.22 113.219 6.7C114.046 7.16667 114.692 7.82 115.159 8.66C115.639 9.48667 115.879 10.4467 115.879 11.54C115.879 12.62 115.646 13.58 115.179 14.42C114.712 15.2467 114.066 15.9 113.239 16.38C112.412 16.8467 111.459 17.08 110.379 17.08ZM110.379 15.28C111.072 15.28 111.686 15.12 112.219 14.8C112.752 14.48 113.166 14.04 113.459 13.48C113.766 12.92 113.919 12.2733 113.919 11.54C113.919 10.8067 113.766 10.16 113.459 9.6C113.166 9.02667 112.752 8.58 112.219 8.26C111.686 7.94 111.072 7.78 110.379 7.78C109.686 7.78 109.072 7.94 108.539 8.26C108.006 8.58 107.586 9.02667 107.279 9.6C106.972 10.16 106.819 10.8067 106.819 11.54C106.819 12.2733 106.972 12.92 107.279 13.48C107.586 14.04 108.006 14.48 108.539 14.8C109.072 15.12 109.686 15.28 110.379 15.28ZM133.275 17.02C132.982 17.02 132.735 16.9267 132.535 16.74C132.349 16.54 132.255 16.2933 132.255 16V10.28C132.255 9.44 132.049 8.82 131.635 8.42C131.222 8.00667 130.682 7.8 130.015 7.8C129.322 7.8 128.749 8.04 128.295 8.52C127.855 9 127.635 9.61333 127.635 10.36H125.975C125.975 9.49333 126.162 8.73333 126.535 8.08C126.909 7.41333 127.429 6.89333 128.095 6.52C128.775 6.14667 129.549 5.96 130.415 5.96C131.175 5.96 131.849 6.12667 132.435 6.46C133.022 6.79333 133.475 7.28667 133.795 7.94C134.129 8.58 134.295 9.36 134.295 10.28V16C134.295 16.2933 134.202 16.54 134.015 16.74C133.829 16.9267 133.582 17.02 133.275 17.02ZM119.935 17.02C119.642 17.02 119.395 16.9267 119.195 16.74C119.009 16.54 118.915 16.2933 118.915 16V7.1C118.915 6.79333 119.009 6.54667 119.195 6.36C119.395 6.17333 119.642 6.08 119.935 6.08C120.242 6.08 120.489 6.17333 120.675 6.36C120.862 6.54667 120.955 6.79333 120.955 7.1V16C120.955 16.2933 120.862 16.54 120.675 16.74C120.489 16.9267 120.242 17.02 119.935 17.02ZM126.615 17.02C126.322 17.02 126.075 16.9267 125.875 16.74C125.689 16.54 125.595 16.2933 125.595 16V10.28C125.595 9.44 125.389 8.82 124.975 8.42C124.562 8.00667 124.022 7.8 123.355 7.8C122.662 7.8 122.089 8.04 121.635 8.52C121.182 9 120.955 9.61333 120.955 10.36H119.695C119.695 9.49333 119.869 8.73333 120.215 8.08C120.562 7.41333 121.042 6.89333 121.655 6.52C122.269 6.14667 122.969 5.96 123.755 5.96C124.515 5.96 125.189 6.12667 125.775 6.46C126.362 6.79333 126.815 7.28667 127.135 7.94C127.469 8.58 127.635 9.36 127.635 10.28V16C127.635 16.2933 127.542 16.54 127.355 16.74C127.169 16.9267 126.922 17.02 126.615 17.02ZM138.905 17C138.611 17 138.365 16.9067 138.165 16.72C137.978 16.52 137.885 16.2733 137.885 15.98V7.08C137.885 6.77333 137.978 6.52667 138.165 6.34C138.365 6.15333 138.611 6.06 138.905 6.06C139.211 6.06 139.458 6.15333 139.645 6.34C139.831 6.52667 139.925 6.77333 139.925 7.08V15.98C139.925 16.2733 139.831 16.52 139.645 16.72C139.458 16.9067 139.211 17 138.905 17ZM138.905 4.28C138.545 4.28 138.231 4.15333 137.965 3.9C137.711 3.63333 137.585 3.32 137.585 2.96C137.585 2.6 137.711 2.29333 137.965 2.04C138.231 1.77333 138.545 1.64 138.905 1.64C139.265 1.64 139.571 1.77333 139.825 2.04C140.091 2.29333 140.225 2.6 140.225 2.96C140.225 3.32 140.091 3.63333 139.825 3.9C139.571 4.15333 139.265 4.28 138.905 4.28ZM150.819 17C150.526 17 150.279 16.9 150.079 16.7C149.879 16.5 149.779 16.2533 149.779 15.96V2.42C149.779 2.11333 149.879 1.86667 150.079 1.68C150.279 1.48 150.526 1.38 150.819 1.38H161.459C161.766 1.38 162.013 1.48 162.199 1.68C162.399 1.86667 162.499 2.11333 162.499 2.42V15.96C162.499 16.2533 162.399 16.5 162.199 16.7C162.013 16.9 161.766 17 161.459 17C161.166 17 160.919 16.9 160.719 16.7C160.519 16.5 160.419 16.2533 160.419 15.96V3.22H151.859V15.96C151.859 16.2533 151.759 16.5 151.559 16.7C151.373 16.9 151.126 17 150.819 17ZM167.518 17C167.225 17 166.978 16.9067 166.778 16.72C166.591 16.52 166.498 16.2733 166.498 15.98V7.08C166.498 6.77333 166.591 6.52667 166.778 6.34C166.978 6.15333 167.225 6.06 167.518 6.06C167.825 6.06 168.071 6.15333 168.258 6.34C168.445 6.52667 168.538 6.77333 168.538 7.08V15.98C168.538 16.2733 168.445 16.52 168.258 16.72C168.071 16.9067 167.825 17 167.518 17ZM167.518 4.28C167.158 4.28 166.845 4.15333 166.578 3.9C166.325 3.63333 166.198 3.32 166.198 2.96C166.198 2.6 166.325 2.29333 166.578 2.04C166.845 1.77333 167.158 1.64 167.518 1.64C167.878 1.64 168.185 1.77333 168.438 2.04C168.705 2.29333 168.838 2.6 168.838 2.96C168.838 3.32 168.705 3.63333 168.438 3.9C168.185 4.15333 167.878 4.28 167.518 4.28ZM177.293 17.08C176.227 17.08 175.273 16.84 174.433 16.36C173.607 15.8667 172.953 15.2067 172.473 14.38C172.007 13.54 171.773 12.5933 171.773 11.54C171.773 10.46 172.007 9.5 172.473 8.66C172.94 7.82 173.58 7.16667 174.393 6.7C175.207 6.22 176.14 5.98 177.193 5.98C177.98 5.98 178.7 6.13333 179.353 6.44C180.007 6.73333 180.593 7.18 181.113 7.78C181.3 7.99333 181.367 8.21333 181.313 8.44C181.26 8.66667 181.113 8.86667 180.873 9.04C180.687 9.17333 180.48 9.22 180.253 9.18C180.027 9.12667 179.82 9.00667 179.633 8.82C178.98 8.12667 178.167 7.78 177.193 7.78C176.513 7.78 175.913 7.94 175.393 8.26C174.873 8.56667 174.467 9 174.173 9.56C173.88 10.12 173.733 10.78 173.733 11.54C173.733 12.26 173.88 12.9 174.173 13.46C174.48 14.02 174.9 14.4667 175.433 14.8C175.967 15.12 176.587 15.28 177.293 15.28C177.76 15.28 178.167 15.2267 178.513 15.12C178.873 15 179.2 14.82 179.493 14.58C179.707 14.4067 179.927 14.3133 180.153 14.3C180.38 14.2733 180.58 14.3333 180.753 14.48C180.98 14.6667 181.107 14.88 181.133 15.12C181.16 15.3467 181.08 15.5533 180.893 15.74C179.933 16.6333 178.733 17.08 177.293 17.08ZM193.225 16.76C193.052 16.92 192.805 17 192.485 17C192.178 16.9867 191.938 16.8933 191.765 16.72L186.905 11.5L191.485 6.38C191.658 6.19333 191.898 6.08667 192.205 6.06C192.525 6.03333 192.772 6.1 192.945 6.26C193.145 6.44667 193.258 6.66 193.285 6.9C193.312 7.12667 193.238 7.33333 193.065 7.52L189.445 11.4L193.285 15.52C193.458 15.6933 193.545 15.9 193.545 16.14C193.545 16.3667 193.438 16.5733 193.225 16.76ZM185.305 17.02C185.012 17.02 184.778 16.9267 184.605 16.74C184.432 16.54 184.345 16.2933 184.345 16V7.08C184.345 6.77333 184.432 6.52667 184.605 6.34C184.778 6.15333 185.012 6.06 185.305 6.06C185.612 6.06 185.858 6.15333 186.045 6.34C186.245 6.52667 186.345 6.77333 186.345 7.08V10.42H188.905V12.3H186.345V16C186.345 16.2933 186.245 16.54 186.045 16.74C185.858 16.9267 185.612 17.02 185.305 17.02ZM200.644 17.1C199.724 17.1 198.897 16.9067 198.164 16.52C197.444 16.12 196.871 15.54 196.444 14.78C196.031 14.02 195.824 13.0867 195.824 11.98V7.06C195.824 6.76667 195.917 6.52667 196.104 6.34C196.304 6.14 196.551 6.04 196.844 6.04C197.137 6.04 197.377 6.14 197.564 6.34C197.764 6.52667 197.864 6.76667 197.864 7.06V11.98C197.864 12.7267 198.004 13.3467 198.284 13.84C198.564 14.32 198.944 14.68 199.424 14.92C199.904 15.1467 200.444 15.26 201.044 15.26C201.617 15.26 202.124 15.1467 202.564 14.92C203.017 14.6933 203.377 14.3867 203.644 14C203.911 13.6133 204.044 13.18 204.044 12.7H205.304C205.304 13.5267 205.097 14.2733 204.684 14.94C204.284 15.6067 203.731 16.1333 203.024 16.52C202.331 16.9067 201.537 17.1 200.644 17.1ZM205.064 17C204.771 17 204.524 16.9067 204.324 16.72C204.137 16.52 204.044 16.2733 204.044 15.98V7.06C204.044 6.75333 204.137 6.50667 204.324 6.32C204.524 6.13333 204.771 6.04 205.064 6.04C205.371 6.04 205.617 6.13333 205.804 6.32C205.991 6.50667 206.084 6.75333 206.084 7.06V15.98C206.084 16.2733 205.991 16.52 205.804 16.72C205.617 16.9067 205.371 17 205.064 17Z" fill="#F0B731"/>
<path d="M65.9529 40.84C65.8249 40.712 65.7609 40.5787 65.7609 40.44C65.7715 40.2907 65.8302 40.1467 65.9369 40.008L70.1129 34.584L66.4009 29.48C66.2942 29.3413 66.2355 29.2027 66.2249 29.064C66.2249 28.9147 66.2889 28.7813 66.4169 28.664C66.5342 28.5467 66.6729 28.4933 66.8329 28.504C66.9929 28.504 67.1262 28.568 67.2329 28.696L71.5529 34.648L66.8169 40.808C66.7209 40.9467 66.5822 41.0107 66.4009 41C66.2195 41 66.0702 40.9467 65.9529 40.84ZM73.4569 41C73.2862 41 73.1369 40.9413 73.0089 40.824C72.8915 40.696 72.8329 40.5467 72.8329 40.376V35.24H70.4009V34.12H72.8329V29.128C72.8329 28.9467 72.8915 28.7973 73.0089 28.68C73.1369 28.5627 73.2862 28.504 73.4569 28.504C73.6382 28.504 73.7875 28.5627 73.9049 28.68C74.0222 28.7973 74.0809 28.9467 74.0809 29.128V34.12H76.5289V35.24H74.0809V40.376C74.0809 40.5467 74.0222 40.696 73.9049 40.824C73.7875 40.9413 73.6382 41 73.4569 41ZM81.0889 40.84C80.9822 40.9467 80.8329 41 80.6409 41C80.4595 41.0107 80.3155 40.9467 80.2089 40.808L75.3769 34.648L79.8089 28.696C79.9155 28.568 80.0489 28.504 80.2089 28.504C80.3689 28.4933 80.5075 28.5467 80.6249 28.664C80.7422 28.7813 80.7955 28.9147 80.7849 29.064C80.7849 29.2027 80.7369 29.3413 80.6409 29.48L76.8169 34.584L81.1049 40.008C81.2009 40.1467 81.2542 40.2907 81.2649 40.44C81.2755 40.5787 81.2169 40.712 81.0889 40.84ZM86.5136 41.096C85.7563 41.096 85.079 40.9413 84.4816 40.632C83.8843 40.312 83.4096 39.848 83.0576 39.24C82.7163 38.632 82.5456 37.8907 82.5456 37.016V32.856C82.5456 32.6853 82.6043 32.5413 82.7216 32.424C82.839 32.3067 82.983 32.248 83.1536 32.248C83.335 32.248 83.4843 32.3067 83.6016 32.424C83.719 32.5413 83.7776 32.6853 83.7776 32.856V37.016C83.7776 37.6773 83.9003 38.2213 84.1456 38.648C84.4016 39.0747 84.743 39.3947 85.1696 39.608C85.607 39.8213 86.0976 39.928 86.6416 39.928C87.1643 39.928 87.6336 39.8267 88.0496 39.624C88.4763 39.4213 88.8123 39.144 89.0576 38.792C89.303 38.44 89.4256 38.04 89.4256 37.592H90.3056C90.2736 38.264 90.087 38.8667 89.7456 39.4C89.415 39.9227 88.967 40.3387 88.4016 40.648C87.8363 40.9467 87.207 41.096 86.5136 41.096ZM90.0336 41C89.8523 41 89.703 40.9467 89.5856 40.84C89.479 40.7227 89.4256 40.568 89.4256 40.376V32.856C89.4256 32.6747 89.479 32.5307 89.5856 32.424C89.703 32.3067 89.8523 32.248 90.0336 32.248C90.215 32.248 90.3643 32.3067 90.4816 32.424C90.599 32.5307 90.6576 32.6747 90.6576 32.856V40.376C90.6576 40.568 90.599 40.7227 90.4816 40.84C90.3643 40.9467 90.215 41 90.0336 41ZM105.358 41C105.176 41 105.027 40.9467 104.91 40.84C104.792 40.7227 104.734 40.5733 104.734 40.392V35.784C104.734 35.0267 104.536 34.4293 104.142 33.992C103.747 33.544 103.24 33.32 102.622 33.32C101.96 33.32 101.416 33.544 100.99 33.992C100.574 34.4293 100.371 35.016 100.382 35.752H99.2778C99.2884 35.0373 99.4431 34.408 99.7418 33.864C100.04 33.32 100.451 32.8987 100.974 32.6C101.496 32.3013 102.088 32.152 102.75 32.152C103.379 32.152 103.934 32.3013 104.414 32.6C104.904 32.8987 105.283 33.32 105.55 33.864C105.827 34.408 105.966 35.048 105.966 35.784V40.392C105.966 40.5733 105.907 40.7227 105.79 40.84C105.683 40.9467 105.539 41 105.358 41ZM94.1578 41C93.9658 41 93.8111 40.9467 93.6938 40.84C93.5871 40.7227 93.5338 40.5733 93.5338 40.392V32.872C93.5338 32.6907 93.5871 32.5413 93.6938 32.424C93.8111 32.3067 93.9658 32.248 94.1578 32.248C94.3391 32.248 94.4831 32.3067 94.5898 32.424C94.7071 32.5413 94.7658 32.6907 94.7658 32.872V40.392C94.7658 40.5733 94.7071 40.7227 94.5898 40.84C94.4831 40.9467 94.3391 41 94.1578 41ZM99.7738 41C99.5924 41 99.4431 40.9467 99.3258 40.84C99.2084 40.7227 99.1498 40.5733 99.1498 40.392V35.784C99.1498 35.0267 98.9524 34.4293 98.5578 33.992C98.1631 33.544 97.6564 33.32 97.0378 33.32C96.3764 33.32 95.8324 33.5387 95.4058 33.976C94.9791 34.4027 94.7658 34.9627 94.7658 35.656H93.8858C93.9071 34.9733 94.0564 34.3707 94.3338 33.848C94.6218 33.3147 95.0111 32.8987 95.5018 32.6C95.9924 32.3013 96.5471 32.152 97.1658 32.152C97.7951 32.152 98.3498 32.3013 98.8298 32.6C99.3204 32.8987 99.6991 33.32 99.9658 33.864C100.243 34.408 100.382 35.048 100.382 35.784V40.392C100.382 40.5733 100.323 40.7227 100.206 40.84C100.099 40.9467 99.9551 41 99.7738 41ZM111.954 32.248C112.082 32.248 112.199 32.28 112.306 32.344C112.413 32.408 112.498 32.5147 112.562 32.664L116.034 40.216C116.109 40.3653 116.114 40.5093 116.05 40.648C115.997 40.776 115.895 40.8773 115.746 40.952C115.575 41.0267 115.421 41.0427 115.282 41C115.143 40.9467 115.031 40.84 114.946 40.68L111.634 33.304H112.354L108.978 40.664C108.903 40.824 108.786 40.9307 108.626 40.984C108.477 41.0267 108.322 41.0107 108.162 40.936C108.013 40.8613 107.906 40.76 107.842 40.632C107.789 40.4933 107.794 40.3493 107.858 40.2L111.378 32.664C111.506 32.3867 111.698 32.248 111.954 32.248ZM122.08 41.08C121.227 41.08 120.464 40.888 119.792 40.504C119.12 40.12 118.592 39.592 118.208 38.92C117.824 38.248 117.632 37.4853 117.632 36.632C117.632 35.768 117.824 35 118.208 34.328C118.592 33.656 119.12 33.128 119.792 32.744C120.464 32.36 121.227 32.168 122.08 32.168C122.934 32.168 123.691 32.36 124.352 32.744C125.024 33.128 125.552 33.656 125.936 34.328C126.32 35 126.518 35.768 126.528 36.632C126.528 37.4853 126.331 38.248 125.936 38.92C125.552 39.592 125.024 40.12 124.352 40.504C123.691 40.888 122.934 41.08 122.08 41.08ZM122.08 39.96C122.699 39.96 123.254 39.816 123.744 39.528C124.235 39.24 124.619 38.8453 124.896 38.344C125.174 37.8427 125.312 37.272 125.312 36.632C125.312 35.992 125.174 35.4213 124.896 34.92C124.619 34.408 124.235 34.008 123.744 33.72C123.254 33.432 122.699 33.288 122.08 33.288C121.462 33.288 120.907 33.432 120.416 33.72C119.926 34.008 119.536 34.408 119.248 34.92C118.971 35.4213 118.832 35.992 118.832 36.632C118.832 37.272 118.971 37.8427 119.248 38.344C119.536 38.8453 119.926 39.24 120.416 39.528C120.907 39.816 121.462 39.96 122.08 39.96ZM129.548 41C129.356 41 129.202 40.9467 129.084 40.84C128.978 40.7227 128.924 40.568 128.924 40.376V32.856C128.935 32.6747 128.994 32.5307 129.1 32.424C129.218 32.3067 129.367 32.248 129.548 32.248C129.73 32.248 129.874 32.3067 129.98 32.424C130.098 32.5307 130.156 32.68 130.156 32.872V35.912H133.532V36.136C134.087 36.136 134.578 36.2373 135.004 36.44C135.442 36.6427 135.778 36.9253 136.012 37.288C136.258 37.64 136.38 38.0453 136.38 38.504C136.38 38.9947 136.258 39.4267 136.012 39.8C135.778 40.1733 135.442 40.4667 135.004 40.68C134.578 40.8933 134.087 41 133.532 41H129.548ZM130.156 39.864H133.532C134.012 39.864 134.407 39.7413 134.716 39.496C135.026 39.2507 135.18 38.8987 135.18 38.44C135.18 37.96 135.026 37.5973 134.716 37.352C134.407 37.096 134.012 36.968 133.532 36.968H130.156V39.864ZM131.948 36.6V35.912H133.532C133.906 35.912 134.21 35.7893 134.444 35.544C134.679 35.2987 134.796 34.984 134.796 34.6C134.796 34.2587 134.668 33.9707 134.412 33.736C134.167 33.4907 133.852 33.368 133.468 33.368H129.564V32.248H133.468C133.959 32.248 134.391 32.3493 134.764 32.552C135.148 32.744 135.447 33.0107 135.66 33.352C135.884 33.6933 135.996 34.088 135.996 34.536C135.996 35.2293 135.762 35.7467 135.292 36.088C134.834 36.4293 134.247 36.6 133.532 36.6H131.948ZM142.279 41.096C141.522 41.096 140.845 40.9413 140.247 40.632C139.65 40.312 139.175 39.848 138.823 39.24C138.482 38.632 138.311 37.8907 138.311 37.016V32.856C138.311 32.6853 138.37 32.5413 138.487 32.424C138.605 32.3067 138.749 32.248 138.919 32.248C139.101 32.248 139.25 32.3067 139.367 32.424C139.485 32.5413 139.543 32.6853 139.543 32.856V37.016C139.543 37.6773 139.666 38.2213 139.911 38.648C140.167 39.0747 140.509 39.3947 140.935 39.608C141.373 39.8213 141.863 39.928 142.407 39.928C142.93 39.928 143.399 39.8267 143.815 39.624C144.242 39.4213 144.578 39.144 144.823 38.792C145.069 38.44 145.191 38.04 145.191 37.592H146.071C146.039 38.264 145.853 38.8667 145.511 39.4C145.181 39.9227 144.733 40.3387 144.167 40.648C143.602 40.9467 142.973 41.096 142.279 41.096ZM145.799 41C145.618 41 145.469 40.9467 145.351 40.84C145.245 40.7227 145.191 40.568 145.191 40.376V32.856C145.191 32.6747 145.245 32.5307 145.351 32.424C145.469 32.3067 145.618 32.248 145.799 32.248C145.981 32.248 146.13 32.3067 146.247 32.424C146.365 32.5307 146.423 32.6747 146.423 32.856V40.376C146.423 40.568 146.365 40.7227 146.247 40.84C146.13 40.9467 145.981 41 145.799 41ZM153.107 41.096C152.35 41.096 151.673 40.9413 151.075 40.632C150.478 40.312 150.003 39.848 149.651 39.24C149.31 38.632 149.139 37.8907 149.139 37.016V32.856C149.139 32.6853 149.198 32.5413 149.315 32.424C149.433 32.3067 149.577 32.248 149.747 32.248C149.929 32.248 150.078 32.3067 150.195 32.424C150.313 32.5413 150.371 32.6853 150.371 32.856V37.016C150.371 37.6773 150.494 38.2213 150.739 38.648C150.995 39.0747 151.337 39.3947 151.763 39.608C152.201 39.8213 152.691 39.928 153.235 39.928C153.758 39.928 154.227 39.8267 154.643 39.624C155.07 39.4213 155.406 39.144 155.651 38.792C155.897 38.44 156.019 38.04 156.019 37.592H156.899C156.867 38.264 156.681 38.8667 156.339 39.4C156.009 39.9227 155.561 40.3387 154.995 40.648C154.43 40.9467 153.801 41.096 153.107 41.096ZM156.627 41C156.446 41 156.297 40.9467 156.179 40.84C156.073 40.7227 156.019 40.568 156.019 40.376V32.856C156.019 32.6747 156.073 32.5307 156.179 32.424C156.297 32.3067 156.446 32.248 156.627 32.248C156.809 32.248 156.958 32.3067 157.075 32.424C157.193 32.5307 157.251 32.6747 157.251 32.856V40.376C157.251 40.568 157.193 40.7227 157.075 40.84C156.958 40.9467 156.809 41 156.627 41ZM153.283 31.112C152.761 31.112 152.291 31.0267 151.875 30.856C151.459 30.6747 151.129 30.4293 150.883 30.12C150.649 29.8107 150.531 29.464 150.531 29.08C150.531 28.9093 150.585 28.7653 150.691 28.648C150.809 28.5307 150.947 28.472 151.107 28.472C151.278 28.472 151.417 28.5307 151.523 28.648C151.63 28.7653 151.683 28.9253 151.683 29.128C151.683 29.4267 151.838 29.6667 152.147 29.848C152.457 30.0293 152.835 30.12 153.283 30.12C153.742 30.12 154.121 30.0293 154.419 29.848C154.729 29.6667 154.883 29.4267 154.883 29.128C154.883 28.9253 154.937 28.7653 155.043 28.648C155.161 28.5307 155.299 28.472 155.459 28.472C155.63 28.472 155.769 28.5307 155.875 28.648C155.982 28.7653 156.035 28.9093 156.035 29.08C156.035 29.464 155.913 29.8107 155.667 30.12C155.433 30.4293 155.107 30.6747 154.691 30.856C154.275 31.0267 153.806 31.112 153.283 31.112ZM171.615 40.84C171.508 40.9467 171.364 41 171.183 41C171.012 41 170.874 40.9413 170.767 40.824L166.943 36.632L170.607 32.44C170.714 32.3227 170.847 32.2587 171.007 32.248C171.167 32.2373 171.306 32.28 171.423 32.376C171.551 32.4933 171.62 32.6267 171.631 32.776C171.642 32.9147 171.594 33.048 171.487 33.176L168.479 36.568L171.647 40.056C171.754 40.1733 171.807 40.3067 171.807 40.456C171.807 40.5947 171.743 40.7227 171.615 40.84ZM165.407 41C165.226 41 165.082 40.9467 164.975 40.84C164.868 40.7227 164.815 40.5733 164.815 40.392V32.872C164.815 32.68 164.868 32.5307 164.975 32.424C165.082 32.3067 165.226 32.248 165.407 32.248C165.599 32.248 165.748 32.3067 165.855 32.424C165.972 32.5307 166.031 32.68 166.031 32.872V36.04H167.983V37.16H166.031V40.392C166.031 40.5733 165.972 40.7227 165.855 40.84C165.748 40.9467 165.599 41 165.407 41ZM176.987 41.08C176.133 41.08 175.371 40.888 174.699 40.504C174.027 40.12 173.499 39.592 173.115 38.92C172.731 38.248 172.539 37.4853 172.539 36.632C172.539 35.768 172.731 35 173.115 34.328C173.499 33.656 174.027 33.128 174.699 32.744C175.371 32.36 176.133 32.168 176.987 32.168C177.84 32.168 178.597 32.36 179.259 32.744C179.931 33.128 180.459 33.656 180.843 34.328C181.227 35 181.424 35.768 181.435 36.632C181.435 37.4853 181.237 38.248 180.843 38.92C180.459 39.592 179.931 40.12 179.259 40.504C178.597 40.888 177.84 41.08 176.987 41.08ZM176.987 39.96C177.605 39.96 178.16 39.816 178.651 39.528C179.141 39.24 179.525 38.8453 179.803 38.344C180.08 37.8427 180.219 37.272 180.219 36.632C180.219 35.992 180.08 35.4213 179.803 34.92C179.525 34.408 179.141 34.008 178.651 33.72C178.16 33.432 177.605 33.288 176.987 33.288C176.368 33.288 175.813 33.432 175.323 33.72C174.832 34.008 174.443 34.408 174.155 34.92C173.877 35.4213 173.739 35.992 173.739 36.632C173.739 37.272 173.877 37.8427 174.155 38.344C174.443 38.8453 174.832 39.24 175.323 39.528C175.813 39.816 176.368 39.96 176.987 39.96ZM184.455 41C184.263 41 184.108 40.9467 183.991 40.84C183.884 40.7227 183.831 40.568 183.831 40.376V32.872C183.831 32.68 183.884 32.5307 183.991 32.424C184.108 32.3067 184.263 32.248 184.455 32.248C184.732 32.248 184.956 32.376 185.127 32.632L188.663 37.752L192.199 32.632C192.369 32.376 192.593 32.248 192.871 32.248C193.063 32.248 193.212 32.3067 193.319 32.424C193.436 32.5307 193.495 32.68 193.495 32.872V40.376C193.495 40.568 193.436 40.7227 193.319 40.84C193.212 40.9467 193.063 41 192.871 41C192.679 41 192.529 40.9467 192.423 40.84C192.316 40.7227 192.263 40.568 192.263 40.376V33.672L192.663 33.8L189.239 38.744C189.068 38.9893 188.871 39.112 188.647 39.112C188.423 39.112 188.231 38.9893 188.071 38.744L184.647 33.848L185.063 33.72V40.376C185.063 40.568 185.009 40.7227 184.903 40.84C184.796 40.9467 184.647 41 184.455 41ZM203.882 41C203.7 41 203.551 40.9413 203.434 40.824C203.316 40.7067 203.258 40.5627 203.258 40.392V36.232C203.258 35.5707 203.13 35.0267 202.874 34.6C202.628 34.1733 202.287 33.8533 201.85 33.64C201.423 33.4267 200.938 33.32 200.394 33.32C199.871 33.32 199.396 33.4213 198.97 33.624C198.554 33.8267 198.223 34.104 197.978 34.456C197.732 34.808 197.61 35.208 197.61 35.656H196.73C196.751 34.984 196.932 34.3867 197.274 33.864C197.615 33.3307 198.068 32.9147 198.634 32.616C199.199 32.3067 199.828 32.152 200.522 32.152C201.279 32.152 201.956 32.312 202.554 32.632C203.151 32.9413 203.62 33.4 203.962 34.008C204.314 34.616 204.49 35.3573 204.49 36.232V40.392C204.49 40.5627 204.431 40.7067 204.314 40.824C204.196 40.9413 204.052 41 203.882 41ZM197.002 41C196.81 41 196.655 40.9467 196.538 40.84C196.431 40.7227 196.378 40.5733 196.378 40.392V32.872C196.378 32.68 196.431 32.5307 196.538 32.424C196.655 32.3067 196.81 32.248 197.002 32.248C197.183 32.248 197.327 32.3067 197.434 32.424C197.551 32.5307 197.61 32.68 197.61 32.872V40.392C197.61 40.5733 197.551 40.7227 197.434 40.84C197.327 40.9467 197.183 41 197.002 41ZM210.47 32.248C210.598 32.248 210.715 32.28 210.822 32.344C210.928 32.408 211.014 32.5147 211.078 32.664L214.55 40.216C214.624 40.3653 214.63 40.5093 214.566 40.648C214.512 40.776 214.411 40.8773 214.262 40.952C214.091 41.0267 213.936 41.0427 213.798 41C213.659 40.9467 213.547 40.84 213.462 40.68L210.15 33.304H210.87L207.494 40.664C207.419 40.824 207.302 40.9307 207.142 40.984C206.992 41.0267 206.838 41.0107 206.678 40.936C206.528 40.8613 206.422 40.76 206.358 40.632C206.304 40.4933 206.31 40.3493 206.374 40.2L209.894 32.664C210.022 32.3867 210.214 32.248 210.47 32.248ZM220.58 41.08C219.716 41.08 218.948 40.8933 218.276 40.52C217.615 40.136 217.092 39.608 216.708 38.936C216.335 38.264 216.148 37.496 216.148 36.632C216.148 35.7573 216.324 34.9893 216.676 34.328C217.039 33.656 217.535 33.128 218.164 32.744C218.793 32.36 219.519 32.168 220.34 32.168C221.151 32.168 221.855 32.3547 222.452 32.728C223.06 33.0907 223.529 33.5973 223.86 34.248C224.191 34.8987 224.356 35.64 224.356 36.472C224.356 36.6427 224.303 36.7813 224.196 36.888C224.089 36.984 223.951 37.032 223.78 37.032H216.98V36.008H223.908L223.22 36.504C223.231 35.8853 223.119 35.3307 222.884 34.84C222.649 34.3493 222.313 33.9653 221.876 33.688C221.449 33.4107 220.937 33.272 220.34 33.272C219.732 33.272 219.199 33.416 218.74 33.704C218.281 33.992 217.924 34.392 217.668 34.904C217.423 35.4053 217.3 35.9813 217.3 36.632C217.3 37.2827 217.439 37.8587 217.716 38.36C218.004 38.8613 218.393 39.256 218.884 39.544C219.375 39.832 219.94 39.976 220.58 39.976C220.964 39.976 221.348 39.912 221.732 39.784C222.127 39.6453 222.441 39.4747 222.676 39.272C222.793 39.176 222.927 39.128 223.076 39.128C223.225 39.1173 223.353 39.1547 223.46 39.24C223.599 39.368 223.668 39.5067 223.668 39.656C223.679 39.8053 223.62 39.9333 223.492 40.04C223.14 40.3387 222.692 40.5893 222.148 40.792C221.604 40.984 221.081 41.08 220.58 41.08ZM233.24 40.84C233.133 40.9467 232.989 41 232.808 41C232.637 41 232.499 40.9413 232.392 40.824L228.568 36.632L232.232 32.44C232.339 32.3227 232.472 32.2587 232.632 32.248C232.792 32.2373 232.931 32.28 233.048 32.376C233.176 32.4933 233.245 32.6267 233.256 32.776C233.267 32.9147 233.219 33.048 233.112 33.176L230.104 36.568L233.272 40.056C233.379 40.1733 233.432 40.3067 233.432 40.456C233.432 40.5947 233.368 40.7227 233.24 40.84ZM227.032 41C226.851 41 226.707 40.9467 226.6 40.84C226.493 40.7227 226.44 40.5733 226.44 40.392V32.872C226.44 32.68 226.493 32.5307 226.6 32.424C226.707 32.3067 226.851 32.248 227.032 32.248C227.224 32.248 227.373 32.3067 227.48 32.424C227.597 32.5307 227.656 32.68 227.656 32.872V36.04H229.608V37.16H227.656V40.392C227.656 40.5733 227.597 40.7227 227.48 40.84C227.373 40.9467 227.224 41 227.032 41ZM238.532 41.08C237.689 41.08 236.937 40.888 236.276 40.504C235.625 40.1093 235.107 39.576 234.724 38.904C234.35 38.232 234.164 37.4747 234.164 36.632C234.164 35.7787 234.345 35.016 234.708 34.344C235.07 33.672 235.566 33.144 236.196 32.76C236.825 32.3653 237.55 32.168 238.372 32.168C239.022 32.168 239.62 32.296 240.164 32.552C240.718 32.808 241.204 33.192 241.62 33.704C241.737 33.832 241.78 33.9707 241.748 34.12C241.716 34.2587 241.625 34.3813 241.476 34.488C241.358 34.5733 241.225 34.6053 241.076 34.584C240.937 34.552 240.814 34.472 240.708 34.344C240.089 33.64 239.31 33.288 238.372 33.288C237.774 33.288 237.246 33.432 236.788 33.72C236.34 34.008 235.988 34.4027 235.732 34.904C235.486 35.4053 235.364 35.9813 235.364 36.632C235.364 37.272 235.497 37.8427 235.764 38.344C236.03 38.8453 236.404 39.24 236.884 39.528C237.364 39.816 237.913 39.96 238.532 39.96C238.948 39.96 239.326 39.9067 239.668 39.8C240.02 39.6827 240.329 39.5067 240.596 39.272C240.724 39.1653 240.857 39.1067 240.996 39.096C241.134 39.0853 241.262 39.128 241.38 39.224C241.508 39.3413 241.577 39.4747 241.588 39.624C241.609 39.7733 241.561 39.9013 241.444 40.008C240.665 40.7227 239.694 41.08 238.532 41.08Z" fill="white"/>
<defs>
<clipPath id="clip0_80147_72">
<rect width="41" height="41" fill="white"/>
</clipPath>
</defs>
</svg>
