<svg width="43" height="43" viewBox="0 0 43 43" fill="none" xmlns="http://www.w3.org/2000/svg">
<g clip-path="url(#clip0_80130_824)">
<path d="M21.5 43C9.64454 43 0 33.3555 0 21.5C0 9.64454 9.64454 0 21.5 0C33.3555 0 43 9.64454 43 21.5C43 33.3555 33.3555 43 21.5 43ZM21.5 1.79167C10.6335 1.79167 1.79167 10.6335 1.79167 21.5C1.79167 32.3665 10.6335 41.2083 21.5 41.2083C32.3665 41.2083 41.2083 32.3665 41.2083 21.5C41.2083 10.6335 32.3665 1.79167 21.5 1.79167ZM26.6743 34.0417C18.8931 34.0417 8.95833 24.1087 8.95833 16.3257C8.95833 14.6325 9.59975 13.0577 10.7643 11.8949L14.0735 8.58746L20.6042 15.1181L16.951 18.7731C18.4792 22.2453 20.8658 24.6372 24.2233 26.0598L27.8837 22.3994L34.4161 28.93L31.1087 32.2375C30.5262 32.8169 29.8344 33.2749 29.0735 33.5849C28.3126 33.895 27.4977 34.0508 26.6761 34.0435L26.6743 34.0417ZM14.0717 11.1209L12.0293 13.1616C11.6172 13.5781 11.2918 14.0723 11.0719 14.6154C10.852 15.1585 10.742 15.7398 10.7482 16.3257C10.7482 23.1716 19.8248 32.25 26.6725 32.25C27.8891 32.25 29.0125 31.7949 29.8384 30.969L31.8791 28.9282L27.8819 24.931L24.6587 28.1542L24.1158 27.9482C19.866 26.325 16.8202 23.2809 15.059 18.8985L14.8386 18.3485L18.069 15.1181L14.0717 11.1209Z" fill="white"/>
</g>
<defs>
<clipPath id="clip0_80130_824">
<rect width="43" height="43" fill="white"/>
</clipPath>
</defs>
</svg>
